<svg aria-hidden="true" style="position: absolute; width: 0; height: 0; overflow: hidden;" version="1.1" xmlns="http://www.w3.org/2000/svg" xmlns:xlink="http://www.w3.org/1999/xlink">
<defs>
<symbol id="icon-telephone" viewBox="0 0 28 32">
<path d="M25.655 22.957l-0.173-0.216c-1.372-1.734-2.52-2.637-3.503-2.756-0.85-0.116-1.673 0.472-2.548 1.078l-0.935 0.584c-0.092 0.048-0.2 0.093-0.312 0.128l-0.014 0.004c-0.547 0.154-1.927 0.245-2.708-0.47-0.91-0.832-2.32-2.354-3.418-3.685-1.048-1.377-2.2-3.095-2.801-4.176-0.508-0.916-0.083-2.197 0.201-2.672 0.056-0.093 0.13-0.185 0.21-0.276l0.825-0.761c0.012-0.012 0.017-0.027 0.028-0.038 0.008-0.008 0.021-0.005 0.030-0.012 0.745-0.628 1.514-1.274 1.62-2.105 0.123-0.976-0.483-2.296-1.858-4.030l-0.168-0.215c-0.851-1.091-2.137-2.74-3.985-2.469-0.727 0.108-1.376 0.356-2.046 0.776-0.006 0.004-0.010 0.012-0.016 0.016-0.005 0.004-0.012 0.004-0.017 0.008l-0.932 0.69c-0.010 0.006-0.015 0.018-0.024 0.026-0.007 0.006-0.017 0.008-0.025 0.014-0.127 0.107-0.232 0.198-0.336 0.291l0.013-0.011c-0.945 0.843-2.992 3.29-1.596 7.815 0.901 2.923 2.76 6.333 5.388 9.883l-0.025 0.021 1.449 1.805 0.012-0.009c2.85 3.37 5.75 5.976 8.407 7.553 1.773 1.054 3.322 1.402 4.597 1.402 1.677 0 2.879-0.603 3.481-0.995l0.379-0.253c0.043-0.030 0.073-0.071 0.104-0.108l0.825-0.622c0.010-0.008 0.015-0.018 0.024-0.026 0.004-0.004 0.010-0.003 0.016-0.007 0.587-0.536 0.994-1.097 1.276-1.763 0.732-1.705-0.578-3.338-1.445-4.42zM26.12 26.959c-0.22 0.517-0.541 0.957-1.005 1.384l-1.228 0.924c-1.112 0.722-3.49 1.616-6.943-0.435-2.657-1.577-5.582-4.244-8.461-7.712l-0.779-0.984c-2.71-3.595-4.617-7.037-5.517-9.955-1.17-3.793 0.304-5.828 1.29-6.706 0.1-0.091 0.2-0.175 0.3-0.259l0.003-0.004 0.895-0.663c0.463-0.309 1.013-0.529 1.605-0.621l0.023-0.003c1.239-0.186 2.247 1.12 2.987 2.070l0.173 0.22c1.536 1.937 1.684 2.858 1.636 3.234-0.053 0.418-0.688 0.952-1.248 1.423l-0.079 0.067-0.006 0.009-0.012 0.007-0.852 0.788c-0.006 0.005-0.008 0.012-0.014 0.018s-0.016 0.010-0.021 0.016c-0.121 0.133-0.232 0.28-0.33 0.437l-0.007 0.013c-0.48 0.801-0.931 2.457-0.218 3.738 0.623 1.12 1.808 2.89 2.898 4.319 1.138 1.381 2.59 2.95 3.532 3.81 0.705 0.643 1.686 0.86 2.536 0.86 0.454 0 0.872-0.063 1.188-0.153 0.166-0.048 0.338-0.117 0.516-0.204 0.010-0.005 0.016-0.014 0.026-0.021 0.006-0.003 0.014-0.001 0.019-0.005l0.99-0.619c0.031-0.021 0.053-0.050 0.080-0.076l0.011 0.013c0.61-0.422 1.304-0.918 1.739-0.846 0.385 0.046 1.26 0.417 2.799 2.36l0.177 0.222c0.75 0.935 1.776 2.215 1.297 3.334z"></path>
</symbol>
<symbol id="icon-mobile-menu" viewBox="0 0 46 32">
<path d="M45.714 29.726c0 1.257-1.019 2.274-2.274 2.274h-18.309c-1.256 0-2.274-1.018-2.274-2.274s1.018-2.274 2.274-2.274h18.309c1.257 0 2.274 1.017 2.274 2.274zM45.714 16c0 1.257-1.019 2.274-2.274 2.274h-41.166c-1.256 0-2.274-1.018-2.274-2.274s1.018-2.274 2.274-2.274h41.166c1.257 0 2.274 1.019 2.274 2.274zM43.44 4.549c1.256 0 2.274-1.018 2.274-2.274s-1.018-2.274-2.274-2.274v0h-27.451c-1.256 0-2.274 1.018-2.274 2.274s1.018 2.274 2.274 2.274v0h27.451z"></path>
</symbol>
<symbol id="icon-medicine-cosmetics-bottles" viewBox="0 0 39 32">
<path d="M11.958 10.593h-12.126c-0.372 0-0.674 0.289-0.674 0.646v3.879c0 0.357 0.301 0.646 0.674 0.646h0.674v14.867c0 0.357 0.301 0.646 0.674 0.646h9.432c0.372 0 0.674-0.289 0.674-0.646v-14.867h0.674c0.372 0 0.674-0.289 0.674-0.646v-3.879c0-0.357-0.301-0.646-0.674-0.646zM4.547 22.873v-1.293h4.042v-1.293h-4.042v-1.293h5.389v8.403h-5.389v-3.232h1.347v-1.293h-1.347zM9.937 17.703h-6.063c-0.372 0-0.674 0.289-0.674 0.646v9.696c0 0.357 0.301 0.646 0.674 0.646h6.063v1.293h-8.084v-14.219h8.084v1.939zM11.284 14.471h-10.779v-2.585h10.779v2.585zM20.884 10.714v-4.727c-0.002-0.368-0.301-0.665-0.669-0.665-0.002 0-0.004 0-0.005 0h-0.673v-3.326h1.347v-1.331h-7.411v1.331h4.716v3.326h-0.674c-0.372 0-0.674 0.297-0.674 0.665v4.726c-1.535 0.309-2.695 1.653-2.695 3.26v16.637c0 0.368 0.301 0.665 0.674 0.665h8.084c0.372 0 0.674-0.297 0.674-0.665v-16.637c0-1.607-1.16-2.951-2.695-3.26zM18.189 6.653h1.347v3.993h-1.347v-3.993zM17.516 11.976h2.695c1.114 0 2.021 0.896 2.021 1.997v0.665h-6.737v-0.665c0-1.101 0.907-1.996 2.021-1.996zM22.232 27.284h-6.737v-1.331h2.695v-1.331h-2.695v-8.652h6.737v11.313zM15.495 29.945v-1.331h6.737v1.331h-6.737zM38.105 9.765h-11.368c-0.35 0.006-0.632 0.291-0.632 0.642 0 0.004 0 0.007 0 0.011v-0.001 20.207c0 0.36 0.282 0.652 0.632 0.652h11.368c0.349 0 0.632-0.291 0.632-0.652v-20.207c0-0.003 0-0.007 0-0.010 0-0.351-0.282-0.636-0.631-0.642h-0.001zM37.474 29.972h-10.105v-18.904h10.105v18.904z"></path>
<path d="M9.263 23.003h-1.684v0.827h1.684v-0.827zM21.053 24.657h-1.684v1.655h1.684v-1.655zM18.947 23.003c1.625 0 2.947-1.299 2.947-2.896s-1.322-2.896-2.947-2.896-2.947 1.299-2.947 2.896c0 1.597 1.322 2.896 2.947 2.896zM18.947 18.659c0.813 0 1.474 0.648 1.474 1.448s-0.661 1.448-1.474 1.448-1.474-0.65-1.474-1.448 0.661-1.448 1.474-1.448zM30.842 16.384h3.158c1.219 0 2.211-0.928 2.211-2.068s-0.992-2.068-2.211-2.068h-3.158c-1.219 0-2.211 0.927-2.211 2.068s0.992 2.068 2.211 2.068zM34.947 14.316c0 0.488-0.425 0.886-0.947 0.886h-0.947v-1.773h0.947c0.522 0 0.947 0.398 0.947 0.887zM30.842 13.429h0.947v1.773h-0.947c-0.522 0-0.947-0.397-0.947-0.886s0.425-0.887 0.947-0.887zM30.842 23.003h3.158c1.219 0 2.211-1.113 2.211-2.483s-0.992-2.482-2.211-2.482h-3.158c-1.219 0-2.211 1.113-2.211 2.482s0.992 2.483 2.211 2.483zM34.947 20.52c0 0.587-0.425 1.064-0.947 1.064h-0.947v-2.127h0.947c0.522 0 0.947 0.477 0.947 1.064zM30.842 19.457h0.947v2.127h-0.947c-0.522 0-0.947-0.477-0.947-1.064s0.425-1.064 0.947-1.064zM30.842 28.794h3.158c1.219 0 2.211-1.113 2.211-2.482s-0.992-2.483-2.211-2.483h-3.158c-1.219 0-2.211 1.113-2.211 2.483s0.992 2.482 2.211 2.482zM34.947 26.312c0 0.586-0.425 1.064-0.947 1.064h-0.947v-2.128h0.947c0.522 0 0.947 0.477 0.947 1.064zM30.842 25.248h0.947v2.128h-0.947c-0.522 0-0.947-0.477-0.947-1.064s0.425-1.064 0.947-1.064z"></path>
</symbol>
<symbol id="icon-instagram" viewBox="0 0 32 32">
<path d="M16 8.923c-3.908 0-7.077 3.168-7.077 7.077s3.168 7.077 7.077 7.077v0c3.908 0 7.077-3.168 7.077-7.077s-3.168-7.077-7.077-7.077v0zM16 21.231c-2.889 0-5.231-2.342-5.231-5.231s2.342-5.231 5.231-5.231c2.889 0 5.231 2.342 5.231 5.231v0c-0.009 2.885-2.346 5.222-5.23 5.231h-0.001zM22.769 0.923h-13.538c-4.588 0-8.308 3.719-8.308 8.308v0 13.538c0 4.588 3.719 8.308 8.308 8.308v0h13.538c4.588 0 8.308-3.719 8.308-8.308v0-13.538c0-4.588-3.719-8.308-8.308-8.308v0zM29.231 22.769c0 3.569-2.893 6.462-6.462 6.462v0h-13.538c-3.569 0-6.462-2.893-6.462-6.462v0-13.538c0-3.569 2.893-6.462 6.462-6.462v0h13.538c3.569 0 6.462 2.893 6.462 6.462v0 13.538zM25.538 8c0 0.85-0.689 1.538-1.538 1.538s-1.538-0.689-1.538-1.538v0c0-0.85 0.689-1.538 1.538-1.538s1.538 0.689 1.538 1.538v0z"></path>
</symbol>
<symbol id="icon-game-icon" viewBox="0 0 29 32">
<path d="M14.612 0.073c-1.145 0-2.215 0.521-3.127 1.375s-1.692 2.044-2.343 3.486c-0.136 0.302-0.266 0.615-0.391 0.939-0.239-0.042-0.585-0.088-0.933-0.124l-0.078-0.007c-0.329-0.036-0.728-0.062-1.131-0.072l-0.020-0c-1.12-0.026-2.143 0.087-3.040 0.359-1.196 0.363-2.182 1.029-2.755 2.020s-0.656 2.18-0.372 3.396c0.284 1.217 0.924 2.487 1.847 3.772 0.193 0.269 0.4 0.54 0.618 0.809-0.184 0.225-0.387 0.488-0.582 0.757l-0.036 0.052c-0.923 1.284-1.563 2.555-1.847 3.772s-0.2 2.404 0.372 3.396c0.573 0.992 1.56 1.657 2.756 2.020s2.616 0.444 4.189 0.287c0.33-0.033 0.667-0.077 1.010-0.131 0.121 0.317 0.252 0.631 0.391 0.941 0.651 1.441 1.431 2.631 2.343 3.485s1.982 1.376 3.127 1.376 2.215-0.521 3.127-1.376c0.911-0.855 1.692-2.044 2.342-3.485 0.14-0.31 0.271-0.623 0.393-0.941 0.342 0.054 0.679 0.098 1.008 0.131 1.574 0.157 2.995 0.076 4.19-0.287 1.196-0.362 2.183-1.028 2.756-2.020s0.655-2.179 0.372-3.396-0.924-2.487-1.847-3.772c-0.232-0.321-0.434-0.584-0.644-0.842l0.026 0.033c0.184-0.225 0.387-0.489 0.582-0.758l0.036-0.052c0.924-1.284 1.564-2.555 1.847-3.772s0.201-2.404-0.372-3.396c-0.574-0.991-1.56-1.657-2.756-2.019-0.897-0.272-1.92-0.385-3.040-0.359-0.373 0.009-0.756 0.033-1.151 0.073-0.426 0.043-0.772 0.089-1.114 0.145l0.104-0.014c-0.166-0.437-0.297-0.747-0.437-1.052l0.046 0.113c-0.651-1.441-1.431-2.631-2.343-3.486s-1.981-1.376-3.127-1.376zM14.612 1.347c0.764 0 1.513 0.335 2.256 1.031 0.742 0.696 1.452 1.749 2.052 3.079 0.097 0.217 0.191 0.436 0.279 0.657-1.46 0.325-3.007 0.823-4.588 1.489-1.58-0.665-3.127-1.164-4.587-1.488 0.090-0.225 0.183-0.446 0.279-0.658 0.601-1.331 1.311-2.383 2.053-3.079s1.492-1.032 2.256-1.032zM6.185 6.941c0.019-0 0.041-0 0.063-0 0.481 0 0.955 0.025 1.423 0.073l-0.059-0.005c0.233 0.023 0.47 0.053 0.711 0.087-0.449 1.428-0.791 3.016-1.006 4.717-1.367 1.036-2.572 2.127-3.583 3.229-0.122-0.152-0.264-0.338-0.401-0.527l-0.030-0.044c-0.852-1.185-1.409-2.326-1.641-3.317s-0.148-1.808 0.235-2.47c0.382-0.662 1.047-1.142 2.021-1.438 0.639-0.193 1.404-0.298 2.265-0.305zM23.038 6.941c0.861 0.008 1.626 0.113 2.265 0.306 0.975 0.295 1.639 0.777 2.022 1.438s0.465 1.479 0.234 2.47-0.788 2.132-1.641 3.317c-0.139 0.194-0.284 0.384-0.431 0.572-1.011-1.103-2.215-2.193-3.582-3.229-0.214-1.702-0.556-3.29-1.005-4.717 0.24-0.035 0.478-0.065 0.71-0.087 0.412-0.044 0.89-0.069 1.373-0.069 0.019 0 0.038 0 0.057 0h-0.003zM19.634 7.327c0.318 0.953 0.606 2.117 0.809 3.31l0.021 0.146c-1.203-0.826-2.59-1.64-4.035-2.355l-0.202-0.091c1.181-0.44 2.327-0.778 3.408-1.011zM9.591 7.327c1.080 0.233 2.225 0.57 3.407 1.010-1.646 0.806-3.034 1.62-4.355 2.522l0.119-0.077c0.223-1.339 0.511-2.503 0.878-3.631l-0.049 0.175zM14.612 8.994c1.266 0.561 2.296 1.093 3.292 1.678l-0.154-0.083c1.050 0.607 2.036 1.252 2.951 1.921 0.123 1.127 0.189 2.305 0.189 3.516s-0.066 2.388-0.189 3.514c-0.836 0.62-1.799 1.255-2.796 1.838l-0.154 0.083c-0.843 0.501-1.873 1.034-2.933 1.511l-0.206 0.083c-1.266-0.561-2.296-1.094-3.292-1.678l0.153 0.083c-1.151-0.666-2.114-1.301-3.040-1.983l0.090 0.063c-0.12-1.050-0.188-2.267-0.188-3.5 0-0.005 0-0.011 0-0.016v0.001c0-1.212 0.065-2.39 0.188-3.517 0.836-0.619 1.799-1.254 2.796-1.837l0.154-0.083c0.842-0.501 1.872-1.034 2.932-1.512l0.206-0.083zM14.698 10.911l-3.648 2.252 3.648 2.252 3.647-2.252-3.647-2.252zM7.146 13.58c-0.055 0.732-0.086 1.585-0.086 2.446s0.031 1.714 0.093 2.559l-0.007-0.113c-0.937-0.772-1.779-1.572-2.562-2.427l-0.017-0.019c0.8-0.874 1.642-1.674 2.537-2.413l0.042-0.034zM22.079 13.58c0.937 0.772 1.779 1.572 2.561 2.427l0.017 0.019c-0.799 0.874-1.641 1.673-2.536 2.411l-0.042 0.034c0.055-0.732 0.086-1.585 0.086-2.445s-0.031-1.714-0.093-2.559l0.007 0.113zM10.228 14.152v4.446l3.831 2.364v-4.445l-3.831-2.364zM19.164 14.154l-3.831 2.364v4.444l3.831-2.364v-4.444zM3.736 17.007c1.011 1.103 2.216 2.193 3.583 3.229 0.214 1.702 0.556 3.289 1.005 4.716-0.24 0.035-0.478 0.065-0.71 0.087-1.452 0.145-2.719 0.058-3.693-0.238s-1.639-0.776-2.022-1.438c-0.381-0.662-0.465-1.478-0.234-2.469s0.789-2.132 1.641-3.318c0.139-0.193 0.283-0.383 0.431-0.57zM25.487 17.007c0.151 0.191 0.295 0.381 0.431 0.57 0.852 1.185 1.409 2.327 1.641 3.318s0.148 1.807-0.235 2.469c-0.382 0.662-1.047 1.143-2.021 1.438s-2.24 0.383-3.693 0.239c-0.323-0.033-0.566-0.064-0.807-0.099l0.098 0.012c0.449-1.428 0.791-3.017 1.005-4.719 1.367-1.035 2.571-2.126 3.582-3.227zM20.463 21.268c-0.223 1.339-0.511 2.503-0.878 3.632l0.049-0.175c-1.336-0.296-2.475-0.644-3.576-1.068l0.169 0.057c1.647-0.807 3.034-1.621 4.356-2.523l-0.12 0.077zM8.761 21.268c1.202 0.826 2.589 1.639 4.033 2.355l0.202 0.091c-0.932 0.367-2.071 0.715-3.242 0.979l-0.165 0.031c-0.318-0.953-0.605-2.117-0.808-3.31l-0.020-0.146zM14.649 21.326l0.047 0.029 0.047-0.029h-0.092zM14.612 24.447c1.581 0.665 3.127 1.164 4.588 1.488-0.129 0.33-0.223 0.547-0.321 0.762l0.042-0.102c-0.601 1.331-1.31 2.383-2.053 3.079-0.742 0.696-1.491 1.032-2.255 1.032s-1.513-0.336-2.256-1.032c-0.743-0.696-1.452-1.749-2.053-3.079-0.097-0.218-0.191-0.438-0.279-0.66 1.46-0.324 3.007-0.822 4.588-1.488z"></path>
</symbol>
<symbol id="icon-facebook" viewBox="0 0 19 32">
<path d="M17.641 1.245c-1.303-0.146-2.813-0.23-4.343-0.23-0.044 0-0.089 0-0.133 0l0.007-0c-4.948 0-8.022 3.151-8.022 8.224v3.445h-4.157c0 0 0 0 0 0-0.406 0-0.735 0.329-0.736 0.735v5.665c0.001 0.406 0.33 0.735 0.736 0.735 0 0 0 0 0 0h4.157v11.359c0.001 0.406 0.329 0.734 0.735 0.735h5.853c0 0 0.001 0 0.001 0 0.406 0 0.735-0.329 0.735-0.735 0 0 0 0 0 0v0-11.36h4.143c0.372-0 0.68-0.277 0.729-0.636l0-0.004 0.732-5.664c0.004-0.029 0.006-0.063 0.006-0.097 0-0.405-0.329-0.734-0.734-0.734-0.001 0-0.002 0-0.003 0h-4.874v-2.881c0-1.428 0.287-2.024 2.071-2.024h3.001c0.406-0.001 0.734-0.329 0.735-0.735v-5.069c-0-0.373-0.277-0.68-0.636-0.729l-0.004-0zM16.809 6.306l-2.265 0.001c-3.174 0-3.542 1.995-3.542 3.495v3.619c0.001 0.406 0.329 0.734 0.735 0.735h4.776l-0.543 4.193h-4.232c0 0 0 0 0 0-0.406 0-0.735 0.329-0.735 0.735 0 0 0 0.001 0 0.001v-0 11.354h-4.382v-11.354c0 0 0 0 0 0 0-0.406-0.33-0.736-0.736-0.736-0 0-0.001 0-0.001 0h-4.153v-4.193h4.154c0 0 0.001 0 0.001 0 0.406 0 0.735-0.329 0.735-0.735 0 0 0 0 0 0v0-4.182c0-4.228 2.45-6.753 6.551-6.753 1.485 0 2.825 0.082 3.637 0.152v3.668z"></path>
</symbol>
<symbol id="icon-crown" viewBox="0 0 39 32">
<path d="M37.805 7.547c-0.316-0.292-0.719-0.494-1.165-0.565l-0.013-0.002c-0.095-0.015-0.205-0.023-0.316-0.023-0.348 0-0.677 0.082-0.968 0.229l0.012-0.006-8.417 4.107c-0.043 0.027-0.096 0.042-0.152 0.042-0.079 0-0.151-0.031-0.204-0.081l0 0c-0.032-0.030-0.058-0.066-0.076-0.105l-0.001-0.002-4.917-9.717c-0.198-0.399-0.487-0.727-0.842-0.964l-0.009-0.006c-0.333-0.222-0.742-0.355-1.182-0.356h-0c-0.44 0.001-0.849 0.134-1.19 0.361l0.008-0.005c-0.364 0.244-0.653 0.571-0.845 0.956l-0.006 0.014-4.916 9.716c-0.020 0.042-0.047 0.078-0.079 0.108l-0 0c-0.031 0.028-0.067 0.051-0.108 0.065l-0.002 0.001c-0.028 0.010-0.060 0.015-0.093 0.015-0.056 0-0.108-0.016-0.153-0.043l0.001 0.001-8.418-4.107c-0.281-0.144-0.613-0.229-0.964-0.229-0.108 0-0.214 0.008-0.318 0.023l0.012-0.001c-0.459 0.071-0.862 0.273-1.179 0.566l0.002-0.001c-0.335 0.309-0.587 0.702-0.722 1.146l-0.005 0.018c-0.077 0.244-0.121 0.526-0.121 0.817 0 0.211 0.023 0.416 0.067 0.613l-0.003-0.019 4.252 19.855c0.071 0.335 0.204 0.652 0.391 0.929s0.421 0.51 0.692 0.684c0.356 0.24 0.766 0.366 1.184 0.366 0.213-0.002 0.427-0.033 0.633-0.092 3.561-1.128 7.657-1.778 11.904-1.778 4.226 0 8.302 0.643 12.135 1.838l-0.289-0.078c0.302 0.096 0.62 0.124 0.933 0.080 0.335-0.047 0.636-0.163 0.897-0.334l-0.008 0.005c0.279-0.182 0.512-0.412 0.692-0.679l0.005-0.009c0.188-0.279 0.324-0.596 0.396-0.934l4.234-19.855c0.044-0.185 0.069-0.397 0.069-0.615 0-0.282-0.042-0.554-0.12-0.81l0.005 0.020c-0.137-0.461-0.387-0.854-0.718-1.16l-0.002-0.002zM36.64 9.6l-4.251 19.854c-0.022 0.097-0.076 0.179-0.148 0.238l-0.001 0.001c-0.053 0.029-0.116 0.047-0.183 0.047-0.030 0-0.059-0.003-0.086-0.010l0.003 0c-3.715-1.175-7.987-1.852-12.417-1.852s-8.702 0.677-12.718 1.933l0.301-0.081c-0.027 0.009-0.059 0.014-0.092 0.014-0.064 0-0.123-0.020-0.171-0.053l0.001 0.001c-0.040-0.027-0.073-0.061-0.099-0.1l-0.001-0.001c-0.026-0.039-0.045-0.085-0.055-0.134l-0-0.002-4.25-19.854c-0.004-0.022-0.006-0.047-0.006-0.073 0-0.090 0.028-0.174 0.077-0.242l-0.001 0.001c0.031-0.043 0.070-0.078 0.116-0.103l0.002-0.001c0.042-0.024 0.092-0.038 0.145-0.040h0.001l0.133 0.036 8.434 4.124c0.277 0.142 0.604 0.225 0.951 0.225 0.264 0 0.517-0.048 0.751-0.137l-0.015 0.005c0.573-0.224 1.028-0.646 1.29-1.179l0.006-0.014 4.916-9.717c0.026-0.058 0.066-0.105 0.115-0.14l0.001-0.001c0.047-0.032 0.104-0.051 0.167-0.051s0.12 0.019 0.168 0.052l-0.001-0.001c0.051 0.035 0.091 0.083 0.116 0.138l0.001 0.002 4.916 9.716c0.281 0.563 0.744 0.989 1.297 1.193s1.156 0.171 1.687-0.092l8.434-4.124c0.040-0.020 0.087-0.032 0.137-0.032 0.083 0 0.157 0.033 0.212 0.086l-0-0c0.049 0.044 0.086 0.1 0.106 0.164l0.001 0.003c0.012 0.036 0.019 0.078 0.019 0.121 0 0.028-0.003 0.056-0.008 0.082l0-0.003zM25.889 23.532c-0.028 0.276-0.148 0.52-0.33 0.703l0-0c-0.171 0.173-0.408 0.282-0.669 0.287h-0.101c-1.57-0.184-3.39-0.289-5.233-0.289s-3.663 0.105-5.452 0.309l0.219-0.020c-0.031 0.004-0.067 0.006-0.104 0.006-0.242 0-0.462-0.092-0.629-0.242l0.001 0.001c-0.204-0.185-0.34-0.443-0.368-0.731l-0-0.005c-0.003-0.030-0.004-0.066-0.004-0.102 0-0.265 0.086-0.51 0.232-0.709l-0.002 0.003c0.157-0.216 0.395-0.364 0.669-0.402l0.005-0.001c1.631-0.201 3.519-0.316 5.433-0.316s3.802 0.115 5.657 0.338l-0.224-0.022c0.261 0.032 0.5 0.174 0.668 0.396s0.251 0.507 0.231 0.795z"></path>
</symbol>
<symbol id="icon-waves" viewBox="0 0 320 32">
<path d="M85.704 15.051c15.467-2.877 30.443-8.035 45.867-11.163 21.971-4.459 44.851-4.728 66.787-0.104 21.317 4.483 43.421 15.416 64.485 20.971 18.68 4.928 39.075 6.957 57.157 0.8v-25.555h-320v7.293c16.848 6.583 36.353 10.398 56.749 10.398 10.237 0 20.249-0.961 29.952-2.798l-0.997 0.157z"></path>
</symbol>
<symbol id="icon-wavesNegative-2" viewBox="0 0 320 32">
<path d="M262.843 24.755c-21.064-5.555-43.168-16.488-64.485-20.971-21.936-4.624-44.816-4.355-66.787 0.104-15.424 3.128-30.4 8.285-45.867 11.163-8.706 1.68-18.718 2.641-28.955 2.641-20.396 0-39.902-3.815-57.841-10.771l1.092 0.372v24.707h320v-6.453c-18.083 6.165-38.477 4.136-57.157-0.792z"></path>
</symbol>
<symbol id="icon-close-1" viewBox="0 0 32 32">
<path d="M9.335 24.733l-1.792-1.792 7.168-7.168-7.168-7.168 1.792-1.792 7.168 7.168 7.168-7.168 1.792 1.792-7.168 7.168 7.168 7.168-1.792 1.792-7.168-7.168-7.168 7.168z"></path>
</symbol>
<symbol id="icon-Arrow" viewBox="0 0 36 32">
<path d="M1.062 17.414c-0.781-0.781-0.781-2.047 0-2.828l12.728-12.728c0.781-0.781 2.047-0.781 2.828 0s0.781 2.047 0 2.828l-11.314 11.314 11.314 11.314c0.781 0.781 0.781 2.047 0 2.828s-2.047 0.781-2.828 0l-12.728-12.728zM36 18h-33.524v-4h33.524v4z"></path>
</symbol>
</defs>
</svg>
