<svg width="53" height="27" viewBox="0 0 53 27" fill="none" xmlns="http://www.w3.org/2000/svg">
<path d="M1.12 0.615999H5.328C6.32 0.615999 7.08267 0.690666 7.616 0.839999C8.16 0.978666 8.544 1.208 8.768 1.528C8.992 1.83733 9.104 2.27467 9.104 2.84V4.12C9.104 4.408 8.98667 4.68 8.752 4.936C8.528 5.192 8.26133 5.368 7.952 5.464V5.544C8.35733 5.58667 8.72533 5.76267 9.056 6.072C9.39733 6.37067 9.568 6.70667 9.568 7.08V8.68C9.568 9.52267 9.232 10.12 8.56 10.472C7.888 10.824 6.848 11 5.44 11H1.12V0.615999ZM5.328 4.84C5.72267 4.84 6.016 4.808 6.208 4.744C6.4 4.68 6.528 4.57867 6.592 4.44C6.66667 4.29067 6.704 4.07733 6.704 3.8V3.288C6.704 3.04267 6.672 2.86133 6.608 2.744C6.544 2.616 6.41067 2.52533 6.208 2.472C6.016 2.41867 5.70667 2.392 5.28 2.392H3.616V4.84H5.328ZM5.392 9.224C6 9.224 6.432 9.15467 6.688 9.016C6.944 8.87733 7.072 8.65333 7.072 8.344V7.512C7.072 7.128 6.97067 6.856 6.768 6.696C6.576 6.536 6.22933 6.456 5.728 6.456H3.616V9.224H5.392ZM15.0683 11.16C12.3269 11.16 10.9563 10.3227 10.9563 8.648V5.864C10.9563 4.89333 11.2656 4.18933 11.8843 3.752C12.5136 3.31467 13.4789 3.096 14.7803 3.096C16.0069 3.096 16.9029 3.30933 17.4683 3.736C18.0443 4.152 18.3323 4.86133 18.3323 5.864V7.752H13.3083V8.456C13.3083 8.904 13.4683 9.224 13.7883 9.416C14.1083 9.608 14.6843 9.704 15.5163 9.704C16.2843 9.704 17.1483 9.592 18.1083 9.368V10.856C17.1589 11.0587 16.1456 11.16 15.0683 11.16ZM16.1083 6.424V5.304C16.1083 5.048 16.0016 4.856 15.7883 4.728C15.5856 4.6 15.2389 4.536 14.7483 4.536C14.1829 4.536 13.8043 4.6 13.6123 4.728C13.4096 4.86667 13.3083 5.05867 13.3083 5.304V6.424H16.1083ZM22.3098 11.16C21.5844 11.16 21.0404 11.096 20.6778 10.968C20.3258 10.8293 20.0751 10.5893 19.9258 10.248C19.7871 9.896 19.7178 9.37333 19.7178 8.68C19.7178 8.06133 19.7924 7.576 19.9418 7.224C20.1018 6.872 20.3524 6.62133 20.6938 6.472C21.0458 6.312 21.5258 6.232 22.1338 6.232H24.7578V5.704C24.7578 5.37333 24.7098 5.128 24.6138 4.968C24.5284 4.808 24.3631 4.696 24.1178 4.632C23.8831 4.568 23.5258 4.536 23.0458 4.536C22.3844 4.536 21.4778 4.6 20.3258 4.728V3.256C21.1684 3.14933 22.1551 3.096 23.2858 3.096C24.2778 3.096 25.0404 3.17067 25.5738 3.32C26.1178 3.46933 26.5071 3.72533 26.7418 4.088C26.9764 4.45067 27.0938 4.97867 27.0938 5.672V11H24.8058V10.296C24.6244 10.6053 24.3791 10.824 24.0698 10.952C23.7604 11.0907 23.1738 11.16 22.3098 11.16ZM23.2218 9.704C23.6911 9.704 24.0271 9.688 24.2298 9.656C24.3791 9.63467 24.4804 9.60267 24.5338 9.56C24.5978 9.51733 24.6511 9.448 24.6938 9.352C24.7364 9.27733 24.7578 9.16533 24.7578 9.016V7.512H23.1578C22.7951 7.512 22.5391 7.53867 22.3898 7.592C22.2404 7.63467 22.1391 7.73067 22.0858 7.88C22.0324 8.01867 22.0058 8.26933 22.0058 8.632C22.0058 8.984 22.0324 9.22933 22.0858 9.368C22.1391 9.50667 22.2404 9.59733 22.3898 9.64C22.5498 9.68267 22.8271 9.704 23.2218 9.704ZM31.837 11.16C30.845 11.16 30.1463 10.984 29.741 10.632C29.3463 10.2693 29.149 9.704 29.149 8.936V3.256H31.485V8.616C31.485 8.91467 31.5117 9.13867 31.565 9.288C31.629 9.43733 31.7463 9.544 31.917 9.608C32.0983 9.672 32.3703 9.704 32.733 9.704C33.1917 9.704 33.5277 9.67733 33.741 9.624C33.9543 9.56 34.0983 9.45333 34.173 9.304C34.2477 9.15467 34.285 8.92533 34.285 8.616V3.256H36.621V11H34.317V10.056C34.1463 10.792 33.3197 11.16 31.837 11.16ZM42.5366 11.16C42.142 11.16 41.8113 11.144 41.5446 11.112C41.278 11.08 41.0113 11.016 40.7446 10.92C40.446 10.824 40.2006 10.6907 40.0086 10.52C39.8273 10.3493 39.678 10.1147 39.5606 9.816C39.4326 9.50667 39.3686 9.14933 39.3686 8.744V4.696H37.8006V3.256H39.3686V1.016H41.7046V3.256H43.8326V4.696H41.7046V8.344C41.7046 8.71733 41.7366 9 41.8006 9.192C41.8646 9.37333 41.9873 9.50667 42.1686 9.592C42.35 9.66667 42.6273 9.704 43.0006 9.704C43.15 9.704 43.4273 9.67733 43.8326 9.624V11.08C43.3313 11.1333 42.8993 11.16 42.5366 11.16ZM47.3723 10.936L44.2843 3.256H46.8283L48.5723 8.728L50.1563 3.256H52.5723L48.3323 14.328H45.9643L47.3723 10.936ZM0.64 24.48L6.048 17.392H0.8V15.616H9.12V17.12L3.712 24.208H9.216V26H0.64V24.48ZM14.5329 26.16C14.0529 26.16 13.6582 26.144 13.3489 26.112C13.0395 26.08 12.7089 26.016 12.3569 25.92C11.9729 25.8133 11.6635 25.664 11.4289 25.472C11.1942 25.2693 10.9969 24.9867 10.8369 24.624C10.6769 24.272 10.5969 23.8453 10.5969 23.344V21.056C10.5969 20.544 10.6769 20.096 10.8369 19.712C10.9969 19.328 11.2049 19.0293 11.4609 18.816C11.6849 18.6347 11.9782 18.4853 12.3409 18.368C12.7142 18.24 13.0769 18.16 13.4289 18.128C13.8342 18.1067 14.2022 18.096 14.5329 18.096C15.0235 18.096 15.4129 18.112 15.7009 18.144C15.9995 18.1653 16.3249 18.2293 16.6769 18.336C17.0609 18.4533 17.3702 18.6133 17.6049 18.816C17.8502 19.0187 18.0582 19.3067 18.2289 19.68C18.3889 20.064 18.4689 20.5227 18.4689 21.056V23.344C18.4689 23.824 18.3889 24.2453 18.2289 24.608C18.0795 24.9707 17.8822 25.2533 17.6369 25.456C17.4235 25.6373 17.1302 25.7867 16.7569 25.904C16.3942 26.0107 16.0369 26.08 15.6849 26.112C15.3649 26.144 14.9809 26.16 14.5329 26.16ZM14.5329 24.704C14.9702 24.704 15.3009 24.672 15.5249 24.608C15.7489 24.5333 15.9035 24.4213 15.9889 24.272C16.0849 24.1227 16.1329 23.904 16.1329 23.616V20.688C16.1329 20.2613 16.0209 19.9627 15.7969 19.792C15.5729 19.6213 15.1515 19.536 14.5329 19.536C13.9142 19.536 13.4929 19.6213 13.2689 19.792C13.0449 19.9627 12.9329 20.2613 12.9329 20.688V23.616C12.9329 23.904 12.9755 24.1227 13.0609 24.272C13.1569 24.4213 13.3169 24.5333 13.5409 24.608C13.7649 24.672 14.0955 24.704 14.5329 24.704ZM20.2896 18.256H22.5936V19.2C22.775 18.464 23.6016 18.096 25.0736 18.096C26.0656 18.096 26.759 18.2773 27.1536 18.64C27.559 18.992 27.7616 19.552 27.7616 20.32V26H25.4256V20.624C25.4256 20.3253 25.3936 20.1013 25.3296 19.952C25.2763 19.8027 25.159 19.696 24.9776 19.632C24.807 19.568 24.5403 19.536 24.1776 19.536C23.719 19.536 23.383 19.568 23.1696 19.632C22.9563 19.6853 22.8123 19.7867 22.7376 19.936C22.663 20.0853 22.6256 20.3147 22.6256 20.624V26H20.2896V18.256ZM33.6933 26.16C30.9519 26.16 29.5813 25.3227 29.5813 23.648V20.864C29.5813 19.8933 29.8906 19.1893 30.5093 18.752C31.1386 18.3147 32.1039 18.096 33.4053 18.096C34.6319 18.096 35.5279 18.3093 36.0933 18.736C36.6693 19.152 36.9573 19.8613 36.9573 20.864V22.752H31.9333V23.456C31.9333 23.904 32.0933 24.224 32.4133 24.416C32.7333 24.608 33.3093 24.704 34.1413 24.704C34.9093 24.704 35.7733 24.592 36.7333 24.368V25.856C35.7839 26.0587 34.7706 26.16 33.6933 26.16ZM34.7333 21.424V20.304C34.7333 20.048 34.6266 19.856 34.4133 19.728C34.2106 19.6 33.8639 19.536 33.3733 19.536C32.8079 19.536 32.4293 19.6 32.2373 19.728C32.0346 19.8667 31.9333 20.0587 31.9333 20.304V21.424H34.7333Z" fill="#2B7FFF"/>
</svg>
